<svg width="71" height="71" viewBox="0 0 71 71" fill="none" xmlns="http://www.w3.org/2000/svg">
<rect x="1" y="1" width="69" height="69" rx="11" fill="url(#paint0_linear_5578_19)" fill-opacity="0.11" stroke="url(#paint1_diamond_5578_19)" stroke-width="2"/>
<g clip-path="url(#clip0_5578_19)">
<path d="M16.6339 18C16.2621 18.0701 15.994 18.3991 16.0001 18.78V49.98C16.0001 50.4096 16.3505 50.76 16.7801 50.76H29.2601V49.2H17.5601V19.56H53.4401V49.2H41.7401V50.76H54.2201C54.6497 50.76 55.0001 50.4096 55.0001 49.98V18.78C55.0001 18.3504 54.6497 18 54.2201 18H16.7801C16.7557 18 16.7314 18 16.707 18C16.6826 18 16.6582 18 16.6339 18ZM23.8001 25.02V26.58H47.2001V25.02H23.8001ZM23.8001 28.92V30.48H47.2001V28.92H23.8001ZM23.8001 32.82V34.38H47.2001V32.82H23.8001ZM35.427 36.6469C34.6104 36.6469 33.9614 37.1344 33.5501 37.7925C32.7884 37.5487 31.9566 37.6219 31.332 38.1581C30.6982 38.7005 30.5032 39.5048 30.6007 40.2787C29.8573 40.5895 29.2814 41.1806 29.1139 41.9362C29.1139 41.9606 29.1139 41.985 29.1139 42.0094C29.0194 42.762 29.3546 43.4505 29.8939 43.9837C29.5404 44.6906 29.4094 45.5102 29.8207 46.2262C30.0523 46.6315 30.4149 46.8966 30.8201 47.0794V56.22C30.8262 56.4942 30.9785 56.7471 31.2162 56.8812C31.4569 57.0183 31.7524 57.0152 31.9901 56.8781L35.5001 54.7819L39.0101 56.8781C39.2478 57.0152 39.5433 57.0183 39.784 56.8812C40.0217 56.7471 40.174 56.4942 40.1801 56.22V46.7625C40.3629 46.6284 40.5305 46.4913 40.6676 46.2994C40.6767 46.275 40.6859 46.2506 40.692 46.2262C41.0911 45.5255 40.9997 44.7302 40.6676 44.0325C41.3653 43.5176 41.8254 42.7802 41.7401 42.0094C41.734 41.985 41.7249 41.9606 41.7157 41.9362C41.539 41.1471 40.954 40.5743 40.2289 40.2544C40.3172 39.4896 40.1496 38.6974 39.522 38.1581C38.873 37.6036 38.0442 37.5884 37.3039 37.7925C36.8895 37.1557 36.2679 36.6469 35.427 36.6469ZM35.427 38.2069C35.7835 38.2069 36.0424 38.4202 36.1826 38.7919C36.2679 39.0112 36.4446 39.1819 36.6701 39.255C36.6823 39.2611 36.7859 39.2641 36.8164 39.2794C36.856 39.2916 36.8255 39.3037 36.9139 39.3037C36.987 39.3312 36.99 39.3769 37.1332 39.3769C37.2612 39.3738 37.3861 39.3403 37.4989 39.2794C37.9132 39.0722 38.2027 39.0752 38.4982 39.3281C38.806 39.5932 38.8699 39.9405 38.742 40.2787C38.6506 40.5499 38.7176 40.8485 38.9126 41.0587C38.9431 41.1197 38.9766 41.2202 39.0832 41.3269C39.1899 41.4366 39.3239 41.5127 39.4732 41.5462C39.9089 41.6437 40.0765 41.8327 40.1801 42.2531C40.2106 42.6127 40.1527 42.8077 39.5951 43.0087C39.2874 43.1215 39.0832 43.414 39.0832 43.74V44.0569C39.0863 44.2153 39.1381 44.3677 39.2295 44.4956C39.4519 44.8095 39.4702 45.1751 39.3514 45.4219C39.1106 45.7266 38.7633 45.8972 38.4739 45.8606C38.2392 45.8332 38.0077 45.9155 37.8401 46.08L37.5964 46.2994C37.4501 46.4487 37.3709 46.6528 37.377 46.86C37.377 47.2744 37.2155 47.4846 36.8651 47.6156C36.856 47.6156 36.8499 47.6156 36.8407 47.6156C36.8407 47.6065 36.7128 47.64 36.597 47.64C36.3898 47.64 36.1826 47.5425 35.9632 47.3231C35.82 47.183 35.6281 47.1068 35.427 47.1037H35.037C34.8298 47.0977 34.6256 47.1769 34.4764 47.3231C34.1625 47.637 33.9035 47.7284 33.5989 47.6156C33.3003 47.5029 33.087 47.1586 33.087 46.86C33.0839 46.6467 32.9986 46.4456 32.8432 46.2994L32.6239 46.08C32.4502 45.9094 32.2064 45.8271 31.9657 45.8606C31.658 45.9002 31.3381 45.7387 31.1857 45.4706C31.0456 45.2238 31.073 44.8247 31.3076 44.4956C31.399 44.3677 31.4508 44.2153 31.4539 44.0569V43.74C31.4508 43.4536 31.2924 43.1916 31.0395 43.0575C30.8323 42.9387 30.6647 42.5487 30.6739 42.2531C30.7805 41.8235 30.9755 41.5828 31.3076 41.5462C31.4813 41.528 31.6458 41.4487 31.7707 41.3269C31.8896 41.208 31.9383 41.0862 31.9657 41.0344C32.1364 40.8211 32.1821 40.5347 32.0876 40.2787C31.9596 39.9405 32.0236 39.5932 32.3314 39.3281C32.6299 39.0722 33.0382 39.0722 33.2576 39.2306C33.4953 39.3952 33.806 39.4134 34.062 39.2794C34.0711 39.2794 34.0772 39.2794 34.0864 39.2794C34.1107 39.2733 34.1351 39.2641 34.1595 39.255C34.4246 39.1758 34.6287 38.9625 34.6957 38.6944C34.7567 38.4567 35.0705 38.2069 35.427 38.2069ZM38.6201 47.8594V54.855L35.8901 53.2219C35.6494 53.0817 35.3508 53.0817 35.1101 53.2219L32.3801 54.855V48.6637C32.5629 48.8374 32.7792 48.9806 33.0382 49.0781C33.8121 49.3676 34.5556 49.0873 35.1589 48.6637C35.1649 48.6607 35.1771 48.6668 35.1832 48.6637C35.1893 48.6668 35.2015 48.6607 35.2076 48.6637C35.5824 48.9502 36.0333 49.2 36.597 49.2C36.7371 49.2 37.0388 49.197 37.4014 49.0537C37.4135 49.0416 37.4349 49.0355 37.4501 49.0294C37.4714 49.0202 37.4775 49.0416 37.4989 49.0294V49.005C38.0138 48.7795 38.3946 48.3652 38.6201 47.8594Z" fill="url(#paint2_linear_5578_19)"/>
</g>
<defs>
<linearGradient id="paint0_linear_5578_19" x1="35.5" y1="0" x2="35.5" y2="71" gradientUnits="userSpaceOnUse">
<stop stop-color="#00E0FF"/>
<stop offset="1" stop-color="#00E0FF" stop-opacity="0.49"/>
</linearGradient>
<radialGradient id="paint1_diamond_5578_19" cx="0" cy="0" r="1" gradientUnits="userSpaceOnUse" gradientTransform="translate(35.5 35.5) rotate(135.468) scale(47.3536 79.7863)">
<stop stop-color="#49B9E8"/>
<stop offset="1" stop-color="#1F4D60" stop-opacity="0.43"/>
</radialGradient>
<linearGradient id="paint2_linear_5578_19" x1="60.0001" y1="18" x2="16.0001" y2="57" gradientUnits="userSpaceOnUse">
<stop offset="0.25" stop-color="#3B768F"/>
<stop offset="0.536458" stop-color="#3EC6FF"/>
<stop offset="0.817708" stop-color="#3B768F"/>
</linearGradient>
<clipPath id="clip0_5578_19">
<rect width="39" height="39" fill="white" transform="translate(16 18)"/>
</clipPath>
</defs>
</svg>
